<svg xmlns="http://www.w3.org/2000/svg" viewBox="65 18 140 40" fill="none">
  <path d="M175.352 48.072L184.651 26.7999H191.701L201 48.072H193.585L186.717 30.2035H189.513L182.645 48.072H175.352ZM180.883 44.3646L182.706 39.1985H192.491L194.314 44.3646H180.883Z" fill="currentColor"/>
  <path d="M168.071 48.072L163.512 38.1045L169.529 34.7618L176.306 48.072H168.071ZM160.625 40.3837V34.7314H167.706V40.3837H160.625ZM169.924 38.1957L163.3 37.5271L168.526 26.7999H176.002L169.924 38.1957ZM150.263 48.072H142.028L148.835 34.7618L154.852 38.1045L150.263 48.072ZM162.692 48.072H155.702V26.7999H162.692V48.072ZM157.769 40.3837H150.628V34.7314H157.769V40.3837ZM148.44 38.1957L142.331 26.7999H149.807L154.943 37.5271L148.44 38.1957Z" fill="currentColor"/>
  <path d="M129.846 34.701H139.327V39.8671H129.846V34.701ZM130.332 42.6628H140.968V48.072H123.282V26.7999H140.573V32.2091H130.332V42.6628Z" fill="currentColor"/>
  <path d="M100.699 48.072V26.7999H111.487C114.12 26.7999 116.156 27.2862 117.595 28.2586C119.053 29.231 119.783 30.5985 119.783 32.3611C119.783 34.0831 119.114 35.4506 117.777 36.4635C116.44 37.4562 114.637 37.9526 112.368 37.9526L112.976 36.3116C115.386 36.3116 117.281 36.7877 118.658 37.7399C120.036 38.692 120.725 40.0798 120.725 41.9031C120.725 43.7872 119.975 45.2864 118.476 46.4006C116.977 47.5149 114.839 48.072 112.064 48.072H100.699ZM107.749 43.0579H111.73C112.317 43.0579 112.753 42.916 113.036 42.6324C113.34 42.3285 113.492 41.9031 113.492 41.3561C113.492 40.8091 113.34 40.4039 113.036 40.1406C112.753 39.8569 112.317 39.7151 111.73 39.7151H107.749V43.0579ZM107.749 34.9745H110.788C111.395 34.9745 111.841 34.8428 112.125 34.5794C112.408 34.3161 112.55 33.9311 112.55 33.4247C112.55 32.8979 112.408 32.5029 112.125 32.2395C111.841 31.9559 111.395 31.8141 110.788 31.8141H107.749V34.9745Z" fill="currentColor"/>
  <path d="M70 28.7126L82.046 24.3247V52.9339L70 48.7215L70 28.7126Z" fill="currentColor"/>
  <path d="M79.0345 22.9433L82.046 22.0661V43.1465L79.0345 38.1381V22.9433Z" fill="currentColor"/>
  <path d="M74.5172 24.4491L76.7758 23.5718V44.6523L74.5172 39.6438V24.4491Z" fill="currentColor"/>
  <path d="M70 25.9862L72.2586 25.0776V46.9109L70 41.7236V25.9862Z" fill="currentColor"/>
  <path d="M94.0919 26.4633V36.037L88.5766 37.5L94.0919 38.9626V48.7124L82.046 52.9339V22.0661L94.0919 26.4633ZM85.5087 48.4267L91.2834 46.4636V41.4312L85.5087 39.8962V48.4267ZM85.5087 35.4115L91.2834 33.428V28.3436L85.5087 26.7932V35.4115Z" fill="currentColor"/>
</svg>