<svg width="32" height="32" viewBox="0 0 314 398" xmlns="http://www.w3.org/2000/svg">
<style>
  path { fill: #3f5940; }
  @media (prefers-color-scheme: dark) {
    path { fill: #fff; }
  }
</style>
<path d="M3.4604e-05 85.0427L151.376 28.3476V398L0 343.573L3.4604e-05 85.0427Z"/>
<path d="M120.194 11.3249L151.376 0V272.137L120.194 207.48V11.3249Z"/>
<path d="M60.0969 34.0973L90.7123 22.6781V297.083L60.0969 231.888V34.0973Z"/>
<path d="M0 56.7754L30.6154 45.3561V319.761L0 254.566V56.7754Z"/>
<path d="M313.524 56.6953V179.408L241.521 199L313.524 218.591V343.572L162.148 398V0L313.524 56.6953ZM202.969 339.888L275.539 314.576V249.688L202.969 229.898V339.888ZM202.969 172.069L275.539 146.498V80.9404L202.969 60.9473V172.069Z"/>
</svg>
